<mxfile host="app.diagrams.net" modified="2024-04-30T19:58:26.388Z" agent="Mozilla/5.0 (Windows NT 10.0; Win64; x64; rv:126.0) Gecko/20100101 Firefox/126.0" version="24.3.1" etag="9Kaqlrjhic1xVJ-4V7LI" type="github">
  <diagram name="Page-1" id="kazDktDfz-iIFuVTxDjJ">
    <mxGraphModel>
      <root>
        <mxCell id="0" />
        <mxCell id="1" parent="0" />
      </root>
    </mxGraphModel>
  </diagram>
</mxfile>
